# xmcd CD database file
#
# Track frame offsets:
#	150
#	11191
#	23277
#	34150
#	49350
#	63642
#	92893
#	107521
#	122283
#	145063
#	156885
#	172253
#	188673
#	201824
#	214840
#	230457
#	246427
#	266785
#
# Disc length: 3806 seconds
#
# Revision: 0
# Processed by: cddbd v1.5.2PL0 Copyright (c) Steve Scherf et al.
# Submitted via: CDex 1.70beta2
#
DISCID=010edc12
DTITLE=Wild Boots - Gone Country
DYEAR=1900
DGENRE=Country
TTITLE0=My baby loves me
TTITLE1=Amarillo by morning
TTITLE2=It's so easy
TTITLE3=You ain't going nowhere
TTITLE4=Stuck on you
TTITLE5=Lying eyes
TTITLE6=True to his word
TTITLE7=Has anybody seen Amy
TTITLE8=This town is yours
TTITLE9=Fall in love
TTITLE10=Games people play
TTITLE11=The strength of a woman
TTITLE12=Mama likes to Reggae
TTITLE13=My wife left me for my girlfriend
TTITLE14=What I did for love
TTITLE15=Lucille
TTITLE16=Coward of the country
TTITLE17=Islands in the stream
EXTD=
EXTT0=
EXTT1=
EXTT2=
EXTT3=
EXTT4=
EXTT5=
EXTT6=
EXTT7=
EXTT8=
EXTT9=
EXTT10=
EXTT11=
EXTT12=
EXTT13=
EXTT14=
EXTT15=
EXTT16=
EXTT17=
PLAYORDER=
